<svg width="22" height="23" viewBox="0 0 22 23" fill="none" xmlns="http://www.w3.org/2000/svg">
<g clip-path="url(#clip0_2_129)">
<path d="M19.4219 0.5H2.57812C1.15655 0.5 0 1.65655 0 3.07812V19.9219C0 21.3435 1.15655 22.5 2.57812 22.5H19.4219C20.8435 22.5 22 21.3435 22 19.9219V3.07812C22 1.65655 20.8435 0.5 19.4219 0.5ZM20.2812 19.9219C20.2812 20.3957 19.8957 20.7812 19.4219 20.7812H14.5234V13.7773H17.1785L17.6172 11.1133H14.5234V9.26562C14.5234 8.53623 15.0831 7.97656 15.8125 7.97656H17.5742V5.3125H15.8125C13.6244 5.3125 11.8603 7.08496 11.8603 9.2731V11.1133H9.28125V13.7773H11.8603V20.7812H2.57812C2.10427 20.7812 1.71875 20.3957 1.71875 19.9219V3.07812C1.71875 2.60427 2.10427 2.21875 2.57812 2.21875H19.4219C19.8957 2.21875 20.2812 2.60427 20.2812 3.07812V19.9219Z" fill="#77AFBD"/>
</g>
<defs>
<clipPath id="clip0_2_129">
<rect width="22" height="22" fill="white" transform="translate(0 0.5)"/>
</clipPath>
</defs>
</svg>
