<svg width="22" height="23" viewBox="0 0 22 23" fill="none" xmlns="http://www.w3.org/2000/svg">
<path d="M15.4461 0.5H6.55392C2.94007 0.5 0 3.44007 0 7.05392V15.9461C0 19.5599 2.94007 22.5 6.55392 22.5H15.4461C19.0599 22.5 22 19.5599 22 15.9461V7.05392C22 3.44007 19.0599 0.5 15.4461 0.5ZM19.7868 15.9461C19.7868 18.3434 17.8434 20.2868 15.4461 20.2868H6.55392C4.15663 20.2868 2.2132 18.3434 2.2132 15.9461V7.05392C2.2132 4.65659 4.15663 2.7132 6.55392 2.7132H15.4461C17.8434 2.7132 19.7868 4.65659 19.7868 7.05392V15.9461Z" fill="#77AFBD"/>
<path d="M11 5.81006C7.86258 5.81006 5.31006 8.36258 5.31006 11.5C5.31006 14.6374 7.86258 17.19 11 17.19C14.1375 17.19 16.69 14.6375 16.69 11.5C16.69 8.36254 14.1375 5.81006 11 5.81006ZM11 14.9768C9.07985 14.9768 7.52326 13.4202 7.52326 11.5C7.52326 9.57985 9.07989 8.02326 11 8.02326C12.9202 8.02326 14.4768 9.57985 14.4768 11.5C14.4768 13.4202 12.9202 14.9768 11 14.9768Z" fill="#77AFBD"/>
<path d="M16.7011 7.21613C17.4541 7.21613 18.0645 6.6057 18.0645 5.8527C18.0645 5.09969 17.4541 4.48926 16.7011 4.48926C15.9481 4.48926 15.3376 5.09969 15.3376 5.8527C15.3376 6.6057 15.9481 7.21613 16.7011 7.21613Z" fill="#77AFBD"/>
</svg>
