<svg width="158" height="135" viewBox="0 0 158 135" fill="none" xmlns="http://www.w3.org/2000/svg">
<path d="M51.5423 82.8603C51.5423 78.1836 51.5423 73.2081 51.5423 68.4873C53.244 68.4873 54.8576 68.4873 56.5104 68.4873C56.5104 76.1831 56.5104 83.8715 56.5104 91.6016C55.0902 91.6016 53.6627 91.6016 52.1838 91.6016C48.4914 86.7559 44.7696 81.876 41.0502 76.996C41.0086 77.0107 40.9645 77.0229 40.9229 77.0376C40.9229 81.8784 40.9229 86.7192 40.9229 91.6041C39.2383 91.6041 37.6247 91.6041 35.9695 91.6041C35.9695 83.9058 35.9695 76.2198 35.9695 68.4898C37.5023 68.4898 39.0253 68.4898 40.6291 68.4898C44.1868 73.1616 47.7862 77.8873 51.3856 82.613C51.5423 82.8603 51.388 82.613 51.5423 82.8603Z" fill="#716862"/>
<path d="M152.356 82.5518C152.356 80.2134 152.356 77.8775 152.356 75.5391C152.356 73.2008 152.356 70.8624 152.356 68.4849C154.058 68.4849 155.674 68.4849 157.319 68.4849C157.319 76.1953 157.319 83.8838 157.319 91.609C155.899 91.609 154.489 91.609 152.993 91.609C149.308 86.7755 145.581 81.8858 141.852 76.996C141.808 77.0132 141.761 77.0278 141.717 77.045C141.717 81.8882 141.717 86.7315 141.717 91.6114C140.047 91.6114 138.448 91.6114 136.791 91.6114C136.791 83.9254 136.791 76.2272 136.791 68.4873C138.319 68.4873 139.842 68.4873 141.431 68.4873C144.993 73.164 148.585 77.8799 152.175 82.5959C152.239 82.5812 152.297 82.5665 152.356 82.5518Z" fill="#716862"/>
<path d="M120.946 91.9812C119.418 92.133 117.868 92.0669 116.382 91.6849C111.96 90.5488 108.593 87.1698 107.67 82.4808C106.318 75.6126 110.569 69.6675 116.945 68.3527C121.132 67.4908 125.038 68.2376 128.25 71.193C131.869 74.523 132.907 78.737 131.6 83.3941C130.299 88.0219 127.062 90.7545 122.386 91.7706C121.911 91.8759 121.428 91.9322 120.946 91.9812ZM126.333 82.902C126.808 81.6875 126.913 80.3604 126.737 79.0675C126.685 78.6905 126.624 78.3158 126.519 77.9559C125.777 75.3923 124.159 73.6195 121.543 72.9437C118.936 72.2704 116.585 72.8629 114.692 74.8315C113.152 76.4329 112.638 78.4089 112.729 80.6028C112.912 85.0004 117.065 88.2031 121.36 87.2212C123.703 86.6874 125.488 85.0714 126.333 82.902Z" fill="#716862"/>
<path d="M78.307 86.0162C78.307 84.9535 78.307 83.8639 78.307 82.7082C76.6077 82.7082 74.9378 82.7082 73.2238 82.7082C73.2238 81.2341 73.2238 79.8262 73.2238 78.3669C76.5294 78.3669 79.8447 78.3669 83.1919 78.3669C83.1919 81.6994 83.1919 85.022 83.1919 88.3986C81.4167 89.924 79.377 91.043 77.0558 91.5842C73.3536 92.4485 69.7591 92.233 66.4511 90.186C63.4541 88.3349 61.7671 85.5828 61.2651 82.1205C60.768 78.6852 61.3973 75.48 63.5618 72.7034C66.2038 69.3146 69.7714 67.9238 74.0049 68.0487C76.8819 68.1344 79.5141 68.9008 81.7913 70.7176C81.9382 70.8351 82.0851 70.9551 82.2271 71.08C82.2663 71.1143 82.2859 71.173 82.3373 71.2612C81.3089 72.5026 80.2732 73.7489 79.1909 75.054C76.9848 73.1441 74.4946 72.2627 71.6225 72.8919C70.004 73.247 68.7454 74.1995 67.7954 75.5462C65.5966 78.6632 66.0153 83.1146 68.7013 85.6685C71.4339 88.2615 76.1817 87.7179 78.307 86.0162Z" fill="#716862"/>
<path d="M0.558105 68.4727C2.20353 68.4727 3.80488 68.4727 5.50662 68.4727C5.50662 71.7953 5.50662 75.1058 5.50662 78.4187C5.56784 78.4456 5.6315 78.4725 5.69271 78.497C8.79258 75.1621 11.8924 71.8247 15.0094 68.4702C16.9977 68.4702 18.9957 68.4702 21.1161 68.4702C17.9501 71.7733 14.8454 75.0078 11.7088 78.2791C14.9996 82.7306 18.2611 87.1428 21.574 91.6237C19.505 91.6237 17.5437 91.6237 15.4918 91.6237C13.129 88.3818 10.7269 85.0885 8.43019 81.9397C7.49729 82.7918 6.5644 83.6145 5.67312 84.4813C5.53356 84.6159 5.54335 84.9416 5.5409 85.1767C5.53111 87.0669 5.53601 88.9597 5.53356 90.85C5.53356 91.0924 5.50907 91.3323 5.49438 91.609C3.83426 91.609 2.21822 91.609 0.558105 91.609C0.558105 83.9132 0.558105 76.2272 0.558105 68.4727Z" fill="#716862"/>
<path d="M98.4243 91.6212C96.6785 91.6212 95.0772 91.6212 93.3509 91.6212C93.3509 85.4656 93.3509 79.3026 93.3509 73.0783C90.9293 73.0783 88.6301 73.0783 86.282 73.0783C86.282 71.5162 86.282 70.0177 86.282 68.4824C92.6556 68.4824 99.0193 68.4824 105.427 68.4824C105.427 69.9834 105.427 71.4819 105.427 73.049C103.118 73.049 100.819 73.049 98.4219 73.049C98.4243 79.2609 98.4243 85.4092 98.4243 91.6212Z" fill="#716862"/>
<path d="M25.0781 68.4751C26.7529 68.4751 28.3886 68.4751 30.0609 68.4751C30.0609 76.1831 30.0609 83.8691 30.0609 91.6016C28.4228 91.6016 26.7725 91.6016 25.0781 91.6016C25.0781 83.9156 25.0781 76.2297 25.0781 68.4751Z" fill="#716862"/>
<path d="M0 111.866C0 106.597 0 101.293 0 95.9993C0.048971 95.9699 0.0808018 95.9356 0.110184 95.9356C2.31878 95.9601 4.53961 95.8622 6.73596 96.0434C11.2633 96.4155 14.395 100.458 13.7878 104.968C13.2809 108.719 10.4431 111.562 6.69433 111.836C4.49554 111.998 2.27715 111.866 0 111.866ZM1.15082 110.791C3.00437 110.791 4.83099 110.94 6.62088 110.759C9.99743 110.414 12.4141 107.84 12.6639 104.574C12.9283 101.122 10.8936 98.1785 7.56112 97.2774C5.46516 96.7118 3.31534 97.0889 1.14837 96.9689C1.15082 101.638 1.15082 106.242 1.15082 110.791Z" fill="#716862"/>
<path d="M70.8142 109.736C70.8142 105.149 70.8142 100.561 70.8142 95.9453C71.1791 95.9453 71.4925 95.9453 71.8524 95.9453C71.8524 101.273 71.8524 106.592 71.8524 111.934C71.5806 111.934 71.3407 111.934 71.0272 111.934C67.3128 107.255 63.5641 102.534 59.8153 97.8111C59.7615 97.8331 59.7052 97.8552 59.6513 97.8772C59.6513 102.549 59.6513 107.223 59.6513 111.927C59.2595 111.927 58.9461 111.927 58.5886 111.927C58.5886 106.611 58.5886 101.293 58.5886 95.9453C58.9388 95.9453 59.2718 95.9453 59.666 95.9453C63.3143 100.539 66.9896 105.167 70.6624 109.792C70.7138 109.775 70.7653 109.755 70.8142 109.736Z" fill="#716862"/>
<path d="M31.797 104.346C31.797 106.582 31.797 108.71 31.797 110.879C35.2372 110.879 38.6358 110.879 42.0883 110.879C42.0883 111.244 42.0883 111.567 42.0883 111.927C38.2906 111.927 34.4978 111.927 30.6633 111.927C30.6633 106.621 30.6633 101.317 30.6633 95.9648C34.4121 95.9648 38.1804 95.9648 41.9879 95.9648C41.9879 96.2734 41.9879 96.5868 41.9879 96.9638C38.6138 96.9638 35.2372 96.9638 31.8117 96.9638C31.8117 99.0941 31.8117 101.158 31.8117 103.286C34.8675 103.286 37.9037 103.286 40.9717 103.286C40.9717 103.658 40.9717 103.972 40.9717 104.346C37.9233 104.346 34.8871 104.346 31.797 104.346Z" fill="#716862"/>
<path d="M118.652 107.453C117.973 108.947 117.295 110.438 116.612 111.939C116.235 111.939 115.88 111.939 115.437 111.939C117.937 106.538 120.415 101.183 122.895 95.8252C123.265 95.8252 123.603 95.8252 124.039 95.8252C126.502 101.146 128.985 106.511 131.497 111.934C131.039 111.934 130.669 111.934 130.25 111.934C129.58 110.458 128.901 108.967 128.216 107.456C125.045 107.453 121.891 107.453 118.652 107.453ZM127.716 106.332C126.291 103.195 124.905 100.147 123.517 97.096C123.463 97.1009 123.409 97.1082 123.355 97.1131C121.962 100.164 120.571 103.212 119.146 106.329C122.045 106.332 124.817 106.332 127.716 106.332Z" fill="#716862"/>
<path d="M93.7912 96.9933C91.8838 96.9933 90.0718 96.9933 88.2134 96.9933C88.2134 96.626 88.2134 96.3028 88.2134 95.9478C92.2902 95.9478 96.3499 95.9478 100.478 95.9478C100.478 96.2685 100.478 96.5868 100.478 96.9835C98.6442 96.9835 96.8225 96.9835 94.9371 96.9835C94.9371 102.001 94.9371 106.944 94.9371 111.927C94.5478 111.927 94.2172 111.927 93.7912 111.927C93.7912 106.952 93.7912 101.993 93.7912 96.9933Z" fill="#716862"/>
<path d="M147.466 95.9404C147.814 95.9404 148.13 95.9404 148.541 95.9404C148.541 100.909 148.541 105.862 148.541 110.877C151.744 110.877 154.854 110.877 158 110.877C158 111.249 158 111.56 158 111.917C154.506 111.917 151.004 111.917 147.466 111.917C147.466 106.609 147.466 101.31 147.466 95.9404Z" fill="#716862"/>
<path d="M92.7632 43.6298C98.3581 38.0202 96.8988 31.0345 96.8988 31.0345C94.5653 20.8216 84.2692 23.253 84.2692 23.253C86.3994 23.5248 87.8367 23.9753 88.7133 24.3377C89.8029 24.7882 90.6428 25.6942 90.9856 26.8254C91.272 27.7681 91.2892 28.6202 91.2892 28.6202L91.4753 33.2235C94.8788 36.0932 93.3239 39.1808 93.3239 39.1808C91.938 41.8791 88.2407 42.7312 88.2407 42.7312C83.8382 43.7767 80.873 41.8326 80.873 41.8326C81.0738 42.3908 81.375 42.8561 81.7178 43.2405C82.6482 44.286 84.0194 44.832 85.4176 44.8076C88.0522 44.7635 91.2573 44.4109 91.2573 44.4109C91.3259 44.81 91.2573 45.1504 91.1374 45.4246C90.9562 45.8433 90.6134 46.1738 90.202 46.3673C85.1825 48.7154 81.3603 46.4775 81.3603 46.4775C82.3765 49.8099 87.538 48.8672 88.6594 48.6199C88.8235 48.5832 88.99 48.5685 89.1589 48.5734C90.0086 48.5955 90.6011 48.7154 90.6011 48.7154L90.2853 49.6973C90.1996 49.9593 90.0233 50.1846 89.7931 50.3339C86.326 52.5719 82.7217 50.7355 82.7217 50.7355C83.28 53.6542 89.1173 52.4617 89.1173 52.4617C90.3098 55.7942 82.876 54.6581 82.876 54.6581L84.6095 57.851C84.9034 58.4558 85.18 58.8769 85.4151 59.1658C85.8265 59.6727 86.5635 59.7266 87.0483 59.2907C87.7461 58.659 88.0791 57.7212 88.0791 57.7212C88.3901 57.0234 88.6692 56.4969 88.8994 56.1052C89.2226 55.5567 89.6682 55.089 90.1849 54.7168C90.5081 54.4842 90.7578 54.2859 90.9415 54.1292C91.2622 53.8574 91.3381 53.3848 91.1031 53.0371C90.7285 52.4838 90.1065 52.2242 90.1065 52.2242C91.5291 51.4627 92.3372 50.7037 92.7559 50.2188C93.0448 49.8834 93.035 49.3863 92.7387 49.0582C92.2368 48.5024 91.4753 48.0347 91.4753 48.0347C92.702 47.1973 93.4317 46.4211 93.8234 45.9265C94.0732 45.6107 94.0928 45.1699 93.8602 44.8394C93.3337 44.0852 92.7632 43.6298 92.7632 43.6298Z" fill="#76AEBC"/>
<path d="M84.6658 29.7858C85.4689 29.3182 86.6638 28.6938 87.9811 28.2628C87.9811 28.2628 83.3117 28.6203 79.0317 27.5503C79.0317 27.5503 75.0111 26.6737 71.9627 25.1826C71.9627 25.1826 67.9422 23.4 64.311 23.5616C64.311 23.5616 59.9991 23.4637 60.2243 30.6943C60.2243 30.6943 60.3713 38.1354 64.3575 46.9379C64.3575 46.9379 68.0646 57.0333 72.3887 59.3619C73.3682 59.8883 74.5949 59.6288 75.2364 58.7203C75.7041 58.0617 76.1326 57.0235 76.2403 55.4001L77.0508 50.2116C77.0508 50.2116 75.6012 54.9226 74.3206 56.8986C74.088 57.2561 73.6081 57.359 73.2482 57.1312C72.2541 56.5069 70.2952 54.9373 69.0097 51.7346C69.0097 51.7346 67.4696 47.9565 66.7889 41.8768C66.7889 41.8768 65.9025 36.7569 67.8149 32.7217C68.4539 31.3725 69.9279 30.633 71.3922 30.9171C72.5308 31.1399 73.9166 31.4435 74.9744 31.7912C74.9744 31.7912 76.3995 32.3005 78.0939 32.6335C78.8823 32.7878 79.7001 32.6849 80.4298 32.347C81.2623 31.9602 82.4009 31.3798 83.2456 30.7432C83.7084 30.4029 84.1736 30.0723 84.6658 29.7858Z" fill="#76AEBC"/>
</svg>
